<svg xmlns="http://www.w3.org/2000/svg" width="292" height="482" fill="none" viewBox="0 0 292 482"><rect width="292" height="482" fill="url(#paint0_linear_2483_6553)" fill-opacity=".3" transform="matrix(-1 0 0 1 292 0)"/><rect width="292" height="482" fill="url(#paint1_radial_2483_6553)" transform="matrix(-1 0 0 1 292 0)"/><rect width="292" height="482" fill="#151A38" fill-opacity=".4" transform="matrix(-1 0 0 1 292 0)"/><rect width="292" height="482" fill="#fff" fill-opacity=".02" transform="matrix(-1 0 0 1 292 0)"/><rect width="292" height="482" fill="#005CFA" fill-opacity=".2" transform="matrix(-1 0 0 1 292 0)" style="mix-blend-mode:overlay"/><mask id="mask0_2483_6553" width="292" height="482" x="0" y="0" maskUnits="userSpaceOnUse" style="mask-type:alpha"><rect width="292" height="482" fill="url(#paint2_radial_2483_6553)" transform="matrix(-1 0 0 1 292 0)"/><rect width="292" height="482" fill="#000" fill-opacity=".2" transform="matrix(-1 0 0 1 292 0)"/></mask><g mask="url(#mask0_2483_6553)"><g filter="url(#filter0_f_2483_6553)"><ellipse cx="254.536" cy="69.206" fill="#4B66FF" fill-opacity=".25" rx="280.638" ry="170.776"/></g><g opacity=".4"><g filter="url(#filter1_f_2483_6553)" opacity=".1"><ellipse cx="226.2" cy="144.153" fill="#7066CC" rx="226.2" ry="144.153" transform="matrix(-0.84641 -0.532531 -0.302237 0.953233 425.57 31.8164)"/></g><g filter="url(#filter2_f_2483_6553)" opacity=".12" style="mix-blend-mode:plus-lighter"><ellipse cx="102.511" cy="61.61" fill="#ECE6FF" rx="102.511" ry="61.61" transform="matrix(-0.880586 -0.473886 -0.261743 0.965138 371.508 16.0781)"/></g><g filter="url(#filter3_f_2483_6553)" opacity=".2" style="mix-blend-mode:plus-lighter"><ellipse cx="78.713" cy="36.065" fill="#D6C2FF" rx="78.713" ry="36.065" transform="matrix(-0.992917 -0.11881 -0.0601915 0.998187 336.008 -38.2188)"/></g></g></g><defs><filter id="filter0_f_2483_6553" width="767.671" height="547.948" x="-129.299" y="-204.768" color-interpolation-filters="sRGB" filterUnits="userSpaceOnUse"><feFlood flood-opacity="0" result="BackgroundImageFix"/><feBlend in="SourceGraphic" in2="BackgroundImageFix" mode="normal" result="shape"/><feGaussianBlur result="effect1_foregroundBlur_2483_6553" stdDeviation="51.599"/></filter><filter id="filter1_f_2483_6553" width="592.792" height="565.476" x="-105.852" y="-233.969" color-interpolation-filters="sRGB" filterUnits="userSpaceOnUse"><feFlood flood-opacity="0" result="BackgroundImageFix"/><feBlend in="SourceGraphic" in2="BackgroundImageFix" mode="normal" result="shape"/><feGaussianBlur result="effect1_foregroundBlur_2483_6553" stdDeviation="50"/></filter><filter id="filter2_f_2483_6553" width="363.43" height="333.571" x="83.397" y="-139.824" color-interpolation-filters="sRGB" filterUnits="userSpaceOnUse"><feFlood flood-opacity="0" result="BackgroundImageFix"/><feBlend in="SourceGraphic" in2="BackgroundImageFix" mode="normal" result="shape"/><feGaussianBlur result="effect1_foregroundBlur_2483_6553" stdDeviation="45"/></filter><filter id="filter3_f_2483_6553" width="336.373" height="254.407" x="87.495" y="-138.774" color-interpolation-filters="sRGB" filterUnits="userSpaceOnUse"><feFlood flood-opacity="0" result="BackgroundImageFix"/><feBlend in="SourceGraphic" in2="BackgroundImageFix" mode="normal" result="shape"/><feGaussianBlur result="effect1_foregroundBlur_2483_6553" stdDeviation="45"/></filter><linearGradient id="paint0_linear_2483_6553" x1="3.827" x2="380.949" y1="0" y2="432.65" gradientUnits="userSpaceOnUse"><stop stop-color="#141122"/><stop offset=".948" stop-color="#151529"/></linearGradient><radialGradient id="paint1_radial_2483_6553" cx="0" cy="0" r="1" gradientTransform="matrix(97.5484 501.764 -510.235 110.364 -11.3749 -41.5771)" gradientUnits="userSpaceOnUse"><stop offset=".077" stop-color="#5263B9"/><stop offset=".76" stop-color="#14131C" stop-opacity="0"/></radialGradient><radialGradient id="paint2_radial_2483_6553" cx="0" cy="0" r="1" gradientTransform="matrix(-32.2665 458.296 -116.444 -10.2047 155.127 12.8637)" gradientUnits="userSpaceOnUse"><stop stop-color="#211825"/><stop offset=".678" stop-color="#121216"/></radialGradient></defs></svg>